<svg xmlns="http://www.w3.org/2000/svg"  viewBox="0 0 50 50" width="66px" height="66px"><g id="_x32_2"><path fill="#f9b938" d="M44.0498734,21.5359917c0,4.9576244-4.0239449,8.9708271-8.9815712,8.9708271 c-4.9466209,0-8.9705658-4.0132027-8.9705658-8.9708271c0-4.9466228,4.0239449-8.9705677,8.9705658-8.9705677 C40.0259285,12.565424,44.0498734,16.5893688,44.0498734,21.5359917z"/><path fill="#f9b938" d="M44.0504913,21.536808c0,2.0600586-0.6904297,3.9500732-1.8500977,5.460083 c-1.6401367,2.1400146-4.2299805,3.5100098-7.1303711,3.5100098c-4.949707,0-8.9697266-4.0100098-8.9697266-8.9700928 c0-4.8808384,3.957222-8.9699697,8.9697266-8.9699697C40.0304718,12.5668383,44.0504913,16.5868568,44.0504913,21.536808z"/><path fill="#ecb021" d="M44.0504913,21.536808c0,2.0600586-0.6904297,3.9500732-1.8500977,5.460083 c-1.6401367,2.1400146-4.2299805,3.5100098-7.1303711,3.5100098c-2.9296875,0-5.5297852-1.4000244-7.1499023-3.5699463 c1.5,1.119873,3.3603516,1.7799072,5.3603516,1.7799072c2.8999023,0,5.4897461-1.3699951,7.1298828-3.5100098 c1.159668-1.5100098,1.8500977-3.4000244,1.8500977-5.4599609c0-2.0200195-0.6699219-3.8699942-1.7900391-5.3699942 C42.6501007,16.0069008,44.0504913,18.6068764,44.0504913,21.536808z"/><path fill="#ecb021" d="M42.2003937,26.996891c-1.6401367,2.1400146-4.2299805,3.5100098-7.1303711,3.5100098 c-4.949707,0-8.9697266-4.0100098-8.9697266-8.9700928c0-1.5599365,0.3999023-3.0299072,1.1098633-4.3099365 c1.6899414,0.9699707,3.1801758,2.2999268,4.3803711,3.9300537c3.3198242,0.2600098,6.3598633,2.0200195,8.2397461,4.7700195 C40.6803741,26.1769447,41.4801788,26.536808,42.2003937,26.996891z"/><path fill="#ecb021" d="M25.6108456,16.0726757c-0.2729721,0.4614391-0.8527184,0.5574074-1.2306576,0.3171101l-1.0398979-0.5962067 c-0.3961887-0.2225552-0.5903435-0.755002-0.3298054-1.2176514c0.2531891-0.4310093,0.8037891-0.5807772,1.2303486-0.3298063 l1.039896,0.5961294C25.7029057,15.1059504,25.8593311,15.6025457,25.6108456,16.0726757z"/><path fill="#ecb021" d="M27.7798252,10.6945095c-0.2566166-0.455862-0.0762005-0.9893303,0.3294964-1.2177296 c0.3964214-0.2474604,0.9456253-0.138423,1.2306576,0.3171101l0.5961304,1.0528259 c0.2519684,0.4036741,0.0973072,0.991437-0.3298073,1.2177286c-0.4488487,0.2690363-0.9936218,0.0812941-1.2176514-0.3298063 L27.7798252,10.6945095z"/><path fill="#fff" d="M28.9213791,21.9484234c-0.34865,0.0365124-0.6603241-0.2160683-0.6968441-0.5647182 c-0.3337116-3.1859055,1.9857502-6.0480843,5.1716366-6.3817205c0.3486519-0.0365114,0.6603241,0.2160683,0.6968422,0.5647192 c0.0365219,0.3486509-0.2160492,0.6603184-0.5646973,0.6968307c-2.4898224,0.2607422-4.3030396,2.4982224-4.0422382,4.9880581 C29.5225983,21.6002426,29.2700272,21.911911,28.9213791,21.9484234z" opacity=".3"/><path fill="#ecb021" d="M44.5358582,27.006609c-0.2589149,0.46101-0.0673523,0.9943047,0.3301125,1.2177296l1.0398979,0.6088257 c0.4198074,0.228754,0.9685326,0.1137295,1.2303505-0.3298054c0.2510834-0.4737587,0.0882263-0.9693966-0.3298073-1.2303486 l-1.0398979-0.5962067C45.368824,26.4285507,44.812542,26.5367527,44.5358582,27.006609z"/><path fill="#ecb021" d="M44.5358582,16.0726757c0.2729683,0.4614391,0.8527145,0.5574074,1.2306557,0.3171101l1.0398979-0.5962067 c0.3961906-0.2225552,0.5903435-0.755002,0.3298073-1.2176514c-0.2531891-0.4310093-0.803791-0.5807772-1.2303505-0.3298063 l-1.0398979,0.5961294C44.4437943,15.1059504,44.2873726,15.6025457,44.5358582,16.0726757z"/><path fill="#ecb021" d="M46.8952866,22.4275646h1.2049561c0.4948654,0,0.9005432-0.3932114,0.9005432-0.8879223 c0-0.494709-0.4056778-0.9006195-0.9005432-0.9006195h-1.2049561c-0.4945526,0-0.8878441,0.4059105-0.8878441,0.9006195 C46.0074425,22.0343533,46.4007339,22.4275646,46.8952866,22.4275646z"/><path fill="#ecb021" d="M35.9678764,9.7114944V8.5065393c0-0.4948645-0.3932114-0.9005413-0.8879204-0.9005413 s-0.9006195,0.4056768-0.9006195,0.9005413l-0.0000038,1.2049551c0,0.4945545,0.4059105,0.887845,0.9006195,0.887845 S35.9678764,10.206049,35.9678764,9.7114944z"/><path fill="#ecb021" d="M42.3668747,10.6945095c0.2566185-0.455862,0.0762024-0.9893303-0.3294945-1.2177296 c-0.3964233-0.2474604-0.9456253-0.138423-1.2306595,0.3171101l-0.5961266,1.0528259 c-0.2519722,0.4036741-0.0973091,0.991437,0.3298035,1.2177286c0.4488525,0.2690363,0.9936218,0.0812941,1.2176514-0.3298063 L42.3668747,10.6945095z"/><path fill="#e4e3ff" d="M44.621151,34.9732475c0,4.0980835-3.3226929,7.4207535-7.4207573,7.4207535H8.4199715 c-4.0980654,0-7.4207563-3.32267-7.4207563-7.4207535c0-3.8860779,2.9864712-7.0754604,6.7907438-7.3904762 c0.9843864-5.8457165,6.0759325-10.3011856,12.2033691-10.3011856c4.4372978,0,8.3294201,2.3352547,10.5162621,5.8457146 c0.072691-0.0060635,0.1453991-0.0060635,0.2180901-0.0060635c3.3590164,0,6.2909698,1.8354816,7.8447876,4.5584431 C42.016304,28.3218384,44.621151,31.3446541,44.621151,34.9732475z"/><path fill="#d0d0f7" d="M44.6203156,34.9728851c0,2.4699707-1.2099609,4.6599121-3.0600586,6 c0.9101563-1.2199707,1.4399414-2.7299805,1.4399414-4.3699951c0-3.6300049-2.6098633-6.6600342-6.0498047-7.3000488 c-1.5600586-2.7199707-4.4902344-4.5599365-7.8500977-4.5599365c-0.0698242,0-0.1401367,0-0.2197266,0.0100098 c-2.1801758-3.5100098-6.0703125-5.8500977-10.5102539-5.8500977c-3.000001,0-5.7602549,1.0700684-7.8999033,2.8500977 c2.2700195-2.7299805,5.699708-4.4699707,9.5200205-4.4699707c4.4399414,0,8.3295898,2.3299561,10.5200195,5.8398438h0.2197266 c3.3603516,0,6.2900391,1.8300781,7.8398438,4.5600586C42.0202179,28.3228607,44.6203156,31.3428802,44.6203156,34.9728851z"/><path fill="#d0d0f7" d="M44.6220436,34.9770279c0,4.0986557-3.3258705,7.4156494-7.4247475,7.4156494H8.4159794 c-2.644722,0-4.9801531-1.3904762-6.2887583-3.4897232c1.135988,0.7088852,2.4809799,1.1088104,3.9076209,1.1088104h28.7813206 c4.0988731,0,7.4158707-3.3263168,7.4158707-7.4249687c0-1.4448357-0.4091339-2.7808418-1.1266708-3.9168282 C43.2135963,29.9786835,44.6220436,32.30513,44.6220436,34.9770279z"/><g opacity=".5"><path fill="#fff" d="M17.2573605,21.2996597c-0.1038361-0.4907818,0.2094479-0.9735775,0.7002296-1.0783005 c0.6656189-0.1411114,1.3498745-0.2129993,2.0359039-0.2129993c0.5023193,0,0.9087906,0.4064713,0.9087906,0.9087906 s-0.4064713,0.9087906-0.9087906,0.9087906c-0.5591183,0-1.1164627,0.0585747-1.6578331,0.1739483 C17.8398266,22.1031876,17.3617153,21.7869816,17.2573605,21.2996597z"/><path fill="#fff" d="M11.2233124,29.0838394c-0.4952192-0.0834236-0.8289165-0.5529079-0.745492-1.0472393 c0.4428577-2.6260853,1.9666786-4.9699478,4.1800804-6.4316444c0.4171209-0.2768974,0.9833393-0.1624107,1.258462,0.2573719 c0.2768974,0.4188957,0.1615238,0.9824524-0.2573729,1.2584629c-1.7945051,1.1856861-3.029892,3.0875797-3.3884382,5.217556 C12.1890526,28.8177547,11.7394905,29.1653404,11.2233124,29.0838394z"/></g></g></svg>