<svg xmlns="http://www.w3.org/2000/svg"  viewBox="0 0 50 50" width="66px" height="66px"><g id="_x31_02"><path fill="#e4e3ff" d="M39.1933174,38.5c0,5.8000488-4.6999512,10.5-10.4899883,10.5s-10.4899902-4.6999512-10.4899902-10.5 c0-4.0100098,2.2700195-7.5100098,5.5900879-9.2600098V5.8901367C23.8034267,3.1900635,26.0033779,1,28.7033291,1 c1.3500977,0,2.5800781,0.5500488,3.459959,1.4300537c0.8901367,0.8900146,1.4399414,2.1099854,1.4399414,3.460083v23.3498535 C36.9232979,30.9899902,39.1933174,34.4899902,39.1933174,38.5z"/><path fill="#d0d0f7" d="M39.1933174,38.5c0,5.8000488-4.6999512,10.5-10.4899883,10.5 c-0.2900391,0-0.5898438-0.0100098-0.8701172-0.039917C33.2133369,48.5100098,37.4433174,44,37.4433174,38.5 c0-4.0100098-2.2700195-7.5100098-5.590086-9.2600098V5.8901367c0-1.3500977-0.5498047-2.5700684-1.4399414-3.460083 C29.7333584,1.75,28.8332119,1.2600098,27.8332119,1.0800781C28.1134853,1.0300293,28.4032803,1,28.7033291,1 c1.3500977,0,2.5800781,0.5500488,3.459959,1.4300537c0.8901367,0.8900146,1.4399414,2.1099854,1.4399414,3.460083v23.3498535 C36.9232979,30.9899902,39.1933174,34.4899902,39.1933174,38.5z"/><path fill="#c2c2ef" d="M35.9787254,38.4878464c0,4.0205193-3.2644615,7.2751656-7.2753963,7.2751656 s-7.2753983-3.2546463-7.2753983-7.2751656c0-3.3887978,2.3263512-6.2318802,5.456665-7.026495v-22.98423 c0-1.005187,0.8135452-1.809267,1.8187332-1.809267c0.4786377,0,0.9476948,0.1915255,1.282835,0.5169668 c0.3444881,0.354188,0.5358963,0.80408,0.5358963,1.2923002v22.98423 C33.6523743,32.2559662,35.9787254,35.0990486,35.9787254,38.4878464z"/><path fill="#fc6559" d="M30.5220604,31.4613514V14.7520056c0-1.0044575-0.8142719-1.8187304-1.8187294-1.8187304h-0.0000038 c-1.0044575,0-1.8187313,0.8142729-1.8187313,1.8187304v16.7093468c-3.1303139,0.7946148-5.456665,3.6376972-5.456665,7.026495 c0,4.0205193,3.2644634,7.2751656,7.2753983,7.2751656s7.2753963-3.2546463,7.2753963-7.2751656 C35.9787254,35.0990486,33.6523743,32.2559662,30.5220604,31.4613514z"/><path fill="#f05543" d="M35.9833565,38.4899902c0,4.0200195-3.2700195,7.2700195-7.2800274,7.2700195 c-0.2800293,0-0.5700684-0.0200195-0.8398438-0.0599365c3.6098633-0.4100342,6.4299297-3.4799805,6.4299297-7.210083 c0-3.3898926-2.3300762-6.2299805-5.4602032-7.0299072V14.75c0-0.6899414-0.3898926-1.2999268-0.9697266-1.6098633 c0.25-0.1401367,0.5397949-0.210083,0.8398438-0.210083c1,0,1.8200684,0.8199463,1.8200684,1.8199463v16.710083 C33.6532784,32.2600098,35.9833565,35.1000977,35.9833565,38.4899902z"/><g opacity=".3"><path fill="#fff" d="M24.0895596,36.3183594c-0.0849609,0-0.1708984-0.0214844-0.2490234-0.0664063 c-0.2392578-0.1376953-0.3222656-0.4433594-0.1845703-0.6826172c0.6914063-1.2021484,1.7880859-2.1201172,3.0878906-2.5849609 c0.2617188-0.0917969,0.5458984,0.0429688,0.6386719,0.3027344s-0.0419922,0.5458984-0.3027344,0.6386719 c-1.0761719,0.3847656-1.984375,1.1455078-2.5566406,2.1416016 C24.4303799,36.2285156,24.2624111,36.3183594,24.0895596,36.3183594z"/><path fill="#fff" d="M23.3805752,38.9804688c-0.2763672,0-0.5-0.2236328-0.5-0.5 c0-0.3662109,0.0341797-0.7314453,0.1005859-1.0849609c0.0498047-0.2724609,0.3125-0.4501953,0.5839844-0.3984375 c0.2714844,0.0507813,0.4501953,0.3125,0.3984375,0.5839844c-0.0546875,0.2929688-0.0830078,0.5957031-0.0830078,0.8994141 C23.8805752,38.7568359,23.6569424,38.9804688,23.3805752,38.9804688z"/></g><path fill="#fff" d="M25.8696785,10.6966696l-0.0000019,9.3052969c0,0.3040619-0.2460423,0.5501041-0.5501041,0.5501041 s-0.5501041-0.2460423-0.5501041-0.5501041l0.0000019-9.3052969c0-0.3040733,0.2460423-0.5501041,0.5501041-0.5501041 S25.8696785,10.3925962,25.8696785,10.6966696z" opacity=".5"/><path fill="#fff" d="M25.8696766,22.1432896v0.3631554c0,0.3040619-0.2460423,0.5501041-0.5501041,0.5501041 s-0.5501041-0.2460423-0.5501041-0.5501041v-0.3631554c0-0.3040619,0.2460423-0.5501041,0.5501041-0.5501041 S25.8696766,21.8392277,25.8696766,22.1432896z" opacity=".5"/><g><path fill="#ecb021" d="M14.9676437,21.578167c0.2412853,0.4296265,0.062767,0.9266148-0.307642,1.1348286l-0.9691019,0.5673771 c-0.3912277,0.2131805-0.9025974,0.1059875-1.1465883-0.307354c-0.2339897-0.4415054-0.0822201-0.9034004,0.307354-1.1465874 l0.9691019-0.5556164C14.1913824,21.039463,14.709796,21.1402969,14.9676437,21.578167z"/><path fill="#ecb021" d="M14.9676437,11.3886003c-0.2543879,0.4300251-0.7946653,0.5194607-1.1468763,0.2955217l-0.9691019-0.5556183 c-0.3692179-0.2074032-0.5501547-0.7036018-0.307354-1.1347551c0.2359524-0.4016666,0.7490692-0.5412388,1.1465883-0.307354 l0.9691019,0.5555458C15.0534372,10.4876881,15.199213,10.9504757,14.9676437,11.3886003z"/><path fill="#ecb021" d="M18.9984493,26.4483528l-0.5555439,0.9693184c-0.2414551,0.4081612-0.7528496,0.5220585-1.1468773,0.307354 c-0.4112339-0.2572575-0.5328808-0.7455177-0.307066-1.1466599l0.567379-0.9693184 c0.2266941-0.4036465,0.7296104-0.5350208,1.1347542-0.3072834 C19.0924568,25.5379105,19.2324848,26.0499496,18.9984493,26.4483528z"/><path fill="#f9b938" d="M23.7859554,24.8392906c-4.6138897,0-8.3680325-3.7419472-8.3680325-8.3557625 s3.7541428-8.3678112,8.3680325-8.3678112V24.8392906z"/><path fill="#ecb021" d="M12.7688389,17.3108578H11.645916c-0.461175,0-0.8392344-0.3664436-0.8392344-0.8274746 c0-0.4610291,0.3780594-0.8393059,0.8392344-0.8393059h1.1229229c0.460886,0,0.8274012,0.3782768,0.8274012,0.8393059 C13.59624,16.9444141,13.2297249,17.3108578,12.7688389,17.3108578z"/><path fill="#ecb021" d="M16.9889622,6.3765712c-0.2391472-0.4248271-0.0710125-0.921978,0.307066-1.1348276 c0.3694324-0.2306137,0.8812466-0.1289992,1.1468773,0.2955213l0.5555439,0.9811511 c0.2348156,0.376193,0.0906849,0.9239416-0.307354,1.1348276c-0.4182911,0.2507205-0.9259758,0.0757599-1.1347542-0.307354 L16.9889622,6.3765712z"/><path fill="#fff" d="M18.0528011,16.864336c-0.3249149,0.0340252-0.6153698-0.2013588-0.6494026-0.5262737 c-0.3109932-2.9690142,1.8505611-5.6363401,4.8195591-5.9472618c0.324913-0.0340261,0.6153679,0.2013578,0.6494026,0.5262728 c0.0340328,0.3249159-0.2013435,0.615366-0.5262566,0.6493921c-2.3203182,0.2429905-4.0100937,2.3281469-3.7670479,4.6484776 C18.6130905,16.5398579,18.3777142,16.8303089,18.0528011,16.864336z" opacity=".3"/></g></g></svg>