<svg xmlns="http://www.w3.org/2000/svg"  viewBox="0 0 100 100" width="100px" height="100px"><path d="M80,15.48c0,1.93-0.47,3.72-1.39,5.31c-0.91,1.57-2.17,2.84-3.74,3.77C73.26,25.52,71.45,26,69.5,26 c-0.86,0-1.7-0.09-2.5-0.29v27.83c5.68,4.64,9,11.54,9,18.96C76,86.01,65.01,97,51.5,97S27,86.01,27,72.5 c0-7.84,3.77-15.16,10-19.73V20c0-8.27,6.73-15,15-15c3.66,0,7,1.31,9.6,3.49c0.74-0.83,1.61-1.54,2.6-2.11 C65.79,5.46,67.58,5,69.5,5s3.71,0.46,5.31,1.38c1.6,0.92,2.87,2.19,3.8,3.79C79.53,11.76,80,13.55,80,15.48z" opacity=".35"/><path fill="#f2f2f2" d="M78,13.48c0,1.93-0.47,3.72-1.39,5.31c-0.91,1.57-2.17,2.84-3.74,3.77 C71.26,23.52,69.45,24,67.5,24c-0.86,0-1.7-0.09-2.5-0.29v27.83c5.68,4.64,9,11.54,9,18.96C74,84.01,63.01,95,49.5,95 S25,84.01,25,70.5c0-7.84,3.77-15.16,10-19.73V18c0-8.27,6.73-15,15-15c3.66,0,7,1.31,9.6,3.49c0.74-0.83,1.61-1.54,2.6-2.11 C63.79,3.46,65.58,3,67.5,3s3.71,0.46,5.31,1.38c1.6,0.92,2.87,2.19,3.8,3.79C77.53,9.76,78,11.55,78,13.48z"/><path fill="#f4665c" d="M58.5,54.928c0,0,0-35.226,0-36.928c0-4.694-3.806-8.5-8.5-8.5s-8.5,3.806-8.5,8.5v36.393 c-5.922,2.947-10,9.043-10,16.107c0,9.941,8.059,18,18,18s18-8.059,18-18C67.5,63.841,63.875,58.041,58.5,54.928z"/><path fill="#d9eeff" d="M58.5,29V18c0-4.694-3.806-8.5-8.5-8.5s-8.5,3.806-8.5,8.5v11H58.5z"/><path fill="#b73b3b" d="M58.5,40h-6c-0.828,0-1.5-0.672-1.5-1.5l0,0c0-0.828,0.672-1.5,1.5-1.5h6V40z"/><path fill="#b73b3b" d="M58.5,48h-6c-0.828,0-1.5-0.672-1.5-1.5l0,0c0-0.828,0.672-1.5,1.5-1.5h6V48z"/><path fill="#b73b3b" d="M58.5,56h-6c-0.828,0-1.5-0.672-1.5-1.5l0,0c0-0.828,0.672-1.5,1.5-1.5h6V56z"/><path fill="#b73b3b" d="M58.5,32h-6c-0.828,0-1.5-0.672-1.5-1.5l0,0c0-0.828,0.672-1.5,1.5-1.5h6V32z"/><path fill="#70bfff" d="M58.5,24h-6c-0.828,0-1.5-0.672-1.5-1.5l0,0c0-0.828,0.672-1.5,1.5-1.5h6V24z"/><path fill="#40396e" d="M49.5,90C38.748,90,30,81.252,30,70.5c0-7.125,3.808-13.559,10-17.011V18c0-5.514,4.486-10,10-10 s10,4.486,10,10v36.086c5.573,3.573,9,9.783,9,16.414C69,81.252,60.252,90,49.5,90z M50,11c-3.86,0-7,3.14-7,7v36.393 c0,0.569-0.322,1.089-0.832,1.343C36.513,58.551,33,64.208,33,70.5C33,79.598,40.402,87,49.5,87S66,79.598,66,70.5 c0-5.856-3.162-11.326-8.252-14.274C57.285,55.958,57,55.463,57,54.928V18C57,14.14,53.86,11,50,11z"/><path fill="#40396e" d="M70.314,8.718C69.481,8.24,68.543,8,67.5,8s-1.981,0.24-2.814,0.718 c-0.833,0.478-1.488,1.13-1.967,1.955C62.238,11.501,62,12.435,62,13.478c0,1.045,0.238,1.979,0.719,2.805 c0.479,0.828,1.134,1.486,1.967,1.979C65.519,18.756,66.457,19,67.5,19s1.981-0.244,2.814-0.739 c0.831-0.493,1.488-1.151,1.967-1.979C72.76,15.456,73,14.522,73,13.478c0-1.042-0.24-1.977-0.719-2.805 C71.802,9.847,71.145,9.195,70.314,8.718z M69.341,15.414c-0.494,0.507-1.107,0.76-1.841,0.76s-1.347-0.253-1.841-0.76 c-0.494-0.507-0.74-1.153-0.74-1.936c0-0.752,0.246-1.382,0.74-1.89c0.494-0.507,1.107-0.762,1.841-0.762 s1.347,0.255,1.841,0.762c0.494,0.507,0.74,1.138,0.74,1.89C70.081,14.261,69.835,14.907,69.341,15.414z"/></svg>